<svg xmlns="http://www.w3.org/2000/svg" xmlns:xlink="http://www.w3.org/1999/xlink" version="1.0" viewBox="0 -10 100 160">
<linearGradient id="lg" x1="0" y1="0" x2="0" y2="1">
    <stop offset="0" stop-color="white"/>
    <stop offset="1" stop-color="black"/>
    </linearGradient>
<mask id="m">
    <rect x="0" y="80" width="100" height="70" fill="url(#lg)"/>
    </mask>
<filter id="MyFilter">
			<feGaussianBlur in="SourceAlpha" stdDeviation="2" result="blur"/>
			<feOffset in="blur" dx="4" dy="4" result="offsetBlur"/>

			<feSpecularLighting in="blur" surfaceScale="5" specularConstant="0.5" 
                          specularExponent="10" lighting-color="white"  
                          result="specOut">
				<fePointLight x="-5000" y="-10000" z="20000"/>
			</feSpecularLighting>
			<feComposite in="specOut" in2="SourceAlpha" operator="in" result="specOut"/>
			<feComposite in="SourceGraphic" in2="specOut" operator="arithmetic" 
                   k1="0" k2="1" k3="1" k4="0" result="litPaint"/>
			

		</filter>
<g transform="" id="me">
<g transform="">
<svg x="20" y="-60" width="60" height="60"
   xmlns:dc="http://purl.org/dc/elements/1.1/"
   xmlns:cc="http://web.resource.org/cc/"
   xmlns:rdf="http://www.w3.org/1999/02/22-rdf-syntax-ns#"
   xmlns:svg="http://www.w3.org/2000/svg"
   xmlns="http://www.w3.org/2000/svg"
   xmlns:sodipodi="http://sodipodi.sourceforge.net/DTD/sodipodi-0.dtd"
   xmlns:inkscape="http://www.inkscape.org/namespaces/inkscape"
   viewBox="0 0 180 180"
   id="svg2184"
   sodipodi:version="0.32"
   inkscape:version="0.44"
   version="1.0"
   sodipodi:docbase="/home/jason/doc/pictures/svg"
   sodipodi:docname="beachball.svg">
  <defs
     id="defs2186" />
  <sodipodi:namedview
     id="base"
     pagecolor="#ffffff"
     bordercolor="#666666"
     borderopacity="1.0"
     gridtolerance="10000"
     guidetolerance="10"
     objecttolerance="10"
     inkscape:pageopacity="0.0"
     inkscape:pageshadow="2"
     inkscape:zoom="1.979899"
     inkscape:cx="168.20857"
     inkscape:cy="71.45165"
     inkscape:document-units="px"
     inkscape:current-layer="layer1"
     inkscape:window-width="1018"
     inkscape:window-height="739"
     inkscape:window-x="0"
     inkscape:window-y="0" />
  <metadata
     id="metadata2189">
    <rdf:RDF>
      <cc:Work
         rdf:about="">
        <dc:format>image/svg+xml</dc:format>
        <dc:type
           rdf:resource="http://purl.org/dc/dcmitype/StillImage" />

      </cc:Work>
    </rdf:RDF>
  </metadata>
  <g
     inkscape:label="Layer 1"
     inkscape:groupmode="layer"
     id="layer1"
     style="display:inline"
     transform="translate(-153.2163,-210.1631)">
    <path
       sodipodi:type="arc"
       style="fill:white;fill-opacity:1;stroke:black;stroke-width:2;stroke-miterlimit:4;stroke-dasharray:none;stroke-opacity:1;display:inline"
       id="path4113"
       sodipodi:cx="224.25386"
       sodipodi:cy="319.49649"
       sodipodi:rx="26.769043"
       sodipodi:ry="26.769043"
       d="M 251.0229 319.49649 A 26.769043 26.769043 0 1 1  197.48482,319.49649 A 26.769043 26.769043 0 1 1  251.0229 319.49649 z" />
    <path
       d="M 251.0229 319.49649 A 26.769043 26.769043 0 1 1  197.48482,319.49649 A 26.769043 26.769043 0 1 1  251.0229 319.49649 z"
       sodipodi:ry="26.769043"
       sodipodi:rx="26.769043"
       sodipodi:cy="319.49649"
       sodipodi:cx="224.25386"
       id="path4191"
       style="fill:white;fill-opacity:1;stroke:black;stroke-width:2;stroke-miterlimit:4;stroke-dasharray:none;stroke-opacity:1;display:inline"
       sodipodi:type="arc" />
    <path
       sodipodi:type="arc"
       style="fill:white;fill-opacity:1;stroke:black;stroke-width:2;stroke-miterlimit:4;stroke-dasharray:none;stroke-opacity:1;display:inline"
       id="path4193"
       sodipodi:cx="224.25386"
       sodipodi:cy="319.49649"
       sodipodi:rx="26.769043"
       sodipodi:ry="26.769043"
       d="M 251.0229 319.49649 A 26.769043 26.769043 0 1 1  197.48482,319.49649 A 26.769043 26.769043 0 1 1  251.0229 319.49649 z" />
    <g
       id="g4229"
       transform="matrix(0.930576,0,0,0.930576,10.6417,27.09149)">
      <g
         id="g4146"
         style="display:inline">

        <path
           style="opacity:1;fill:#ef7b00;fill-opacity:1;stroke:none;stroke-width:2;stroke-miterlimit:4;stroke-dasharray:none;stroke-opacity:1"
           d="M 165.9375,247.75 C 158.51305,261.34952 154.28125,276.95542 154.28125,293.53125 C 154.28125,308.95612 158.04039,323.46956 164.53125,336.375 C 164.70799,336.70295 164.91232,337.02687 165.28125,337.25 C 165.72078,337.51583 166.30038,337.69125 167,337.8125 C 168.39925,338.055 170.29942,338.02724 172.65625,337.71875 C 175.01308,337.41026 177.82724,336.82302 181.03125,336 C 184.23526,335.17698 187.80922,334.11361 191.75,332.8125 C 194.18147,332.00971 196.97157,330.96996 199.65625,330 C 199.64145,329.96545 199.6084,329.94088 199.59375,329.90625 C 198.91616,328.30513 198.38803,326.61708 198.03125,324.875 C 197.67447,323.13292 197.5,321.34706 197.5,319.5 C 197.5,317.65294 197.67447,315.83583 198.03125,314.09375 C 198.38803,312.35167 198.91616,310.69487 199.59375,309.09375 C 200.2202,307.61348 201.00393,306.20521 201.875,304.875 C 201.66223,304.71268 201.39881,304.56874 201.1875,304.40625 C 196.60277,300.88072 192.37452,297.30438 188.53125,293.75 C 184.68798,290.19562 181.23111,286.66739 178.21875,283.1875 C 175.20639,279.70761 172.62324,276.27081 170.53125,272.96875 C 169.48526,271.31772 168.58038,269.7122 167.78125,268.125 C 166.98212,266.5378 166.29108,264.97919 165.75,263.46875 C 165.20892,261.95831 164.8031,260.48328 164.53125,259.0625 C 164.2594,257.64172 164.11644,256.28694 164.125,254.96875 C 164.13356,253.65056 164.2936,252.35894 164.59375,251.15625 C 164.8939,249.95356 165.33458,248.82427 165.9375,247.75 z "
           id="path4088" />
        <path
           style="opacity:1;fill:yellow;fill-opacity:1;stroke:none;stroke-width:2;stroke-miterlimit:4;stroke-dasharray:none;stroke-opacity:1"
           d="M 199.65625,330 C 196.97157,330.96996 194.18147,332.00971 191.75,332.8125 C 187.80922,334.11361 184.23526,335.17698 181.03125,336 C 177.82724,336.82302 175.01308,337.41026 172.65625,337.71875 C 170.29942,338.02724 168.39925,338.055 167,337.8125 C 166.30038,337.69125 165.72078,337.51583 165.28125,337.25 C 164.85584,336.99271 164.57529,336.64693 164.40625,336.25 C 179.26719,365.87864 209.04906,386.73311 243.90625,388.9375 C 243.2199,388.84366 242.53485,388.70382 241.875,388.40625 C 241.04366,388.03134 240.22381,387.49619 239.4375,386.8125 C 238.65119,386.12881 237.89421,385.31992 237.15625,384.34375 C 236.41829,383.36758 235.71755,382.22112 235.03125,380.96875 C 233.65865,378.46401 232.39606,375.44928 231.25,371.9375 C 230.10394,368.42572 229.04926,364.41975 228.15625,360.03125 C 227.28667,355.7579 226.57275,351.07621 225.96875,346.09375 C 225.39131,346.131 224.8368,346.25 224.25,346.25 C 222.40294,346.25 220.61708,346.07553 218.875,345.71875 C 217.13292,345.36197 215.44487,344.83384 213.84375,344.15625 C 212.24263,343.47866 210.70545,342.64993 209.28125,341.6875 C 207.85705,340.72507 206.55505,339.6488 205.34375,338.4375 C 204.13245,337.2262 203.02493,335.89295 202.0625,334.46875 C 201.12088,333.07536 200.32559,331.56312 199.65625,330 z "
           id="path4136" />
        <path
           style="opacity:1;fill:blue;fill-opacity:1;stroke:none;stroke-width:2;stroke-miterlimit:4;stroke-dasharray:none;stroke-opacity:1"
           d="M 225.96875,346.09375 C 226.57275,351.07621 227.28667,355.7579 228.15625,360.03125 C 229.04926,364.41975 230.10394,368.42572 231.25,371.9375 C 232.39606,375.44928 233.65865,378.46401 235.03125,380.96875 C 235.71755,382.22112 236.41829,383.36758 237.15625,384.34375 C 237.89421,385.31992 238.65119,386.12881 239.4375,386.8125 C 240.22381,387.49619 241.04366,388.03134 241.875,388.40625 C 242.50387,388.68985 243.15952,388.80752 243.8125,388.90625 C 245.86819,389.03818 247.91117,389.21875 250,389.21875 C 286.25845,389.21875 317.82205,369.02923 334.0625,339.28125 C 333.45958,340.35552 332.68686,341.32873 331.8125,342.21875 C 330.93814,343.10877 329.94125,343.91678 328.8125,344.625 C 327.68375,345.33322 326.42859,345.93986 325.0625,346.46875 C 323.69641,346.99764 322.21137,347.46049 320.625,347.8125 C 319.03863,348.16451 317.3521,348.41617 315.5625,348.59375 C 313.7729,348.77133 311.88202,348.86938 309.90625,348.875 C 305.9547,348.88624 301.65644,348.53688 297.0625,347.875 C 292.46856,347.21312 287.5999,346.2216 282.5,344.90625 C 277.4001,343.5909 272.0632,341.98041 266.59375,340.03125 C 261.1243,338.08209 255.51507,335.81332 249.8125,333.25 C 249.11052,332.93446 248.3917,332.51237 247.6875,332.1875 C 247.27427,332.94838 246.92009,333.75461 246.4375,334.46875 C 245.47507,335.89295 244.3988,337.2262 243.1875,338.4375 C 241.9762,339.6488 240.64295,340.72507 239.21875,341.6875 C 237.79455,342.64993 236.25737,343.47866 234.65625,344.15625 C 233.05513,344.83384 231.39833,345.36197 229.65625,345.71875 C 228.46761,345.96218 227.20892,346.01375 225.96875,346.09375 z "
           id="path4133" />
        <path
           style="opacity:1;fill:aqua;fill-opacity:1;stroke:none;stroke-width:2;stroke-miterlimit:4;stroke-dasharray:none;stroke-opacity:1"
           d="M 335.65625,251.03125 C 335.7623,251.40237 335.82447,251.78 335.71875,252.25 C 335.59681,252.79214 335.33164,253.39629 334.9375,254.0625 C 334.14922,255.39493 332.81558,256.96949 331,258.75 C 329.18442,260.53051 326.88588,262.52319 324.125,264.6875 C 321.36412,266.85181 318.15546,269.20366 314.53125,271.6875 C 310.90704,274.17134 306.87429,276.79215 302.46875,279.53125 C 298.06321,282.27035 293.29239,285.13241 288.1875,288.0625 C 283.08261,290.99259 277.6285,294.00569 271.90625,297.0625 C 266.18401,300.11931 260.43911,303.07021 254.75,305.90625 C 252.72147,306.91748 250.75742,307.80522 248.75,308.78125 C 248.79698,308.8883 248.86064,308.98597 248.90625,309.09375 C 249.58384,310.69487 250.11197,312.35167 250.46875,314.09375 C 250.82553,315.83583 251.03125,317.65294 251.03125,319.5 C 251.03125,321.34706 250.82553,323.13292 250.46875,324.875 C 250.11197,326.61708 249.58384,328.30513 248.90625,329.90625 C 248.56843,330.70452 248.09837,331.43097 247.6875,332.1875 C 248.3917,332.51237 249.11052,332.93446 249.8125,333.25 C 255.51507,335.81332 261.1243,338.08209 266.59375,340.03125 C 272.0632,341.98041 277.4001,343.5909 282.5,344.90625 C 287.5999,346.2216 292.46856,347.21312 297.0625,347.875 C 301.65644,348.53688 305.9547,348.88624 309.90625,348.875 C 311.88202,348.86938 313.7729,348.77133 315.5625,348.59375 C 317.3521,348.41617 319.03863,348.16451 320.625,347.8125 C 322.21137,347.46049 323.69641,346.99764 325.0625,346.46875 C 326.42859,345.93986 327.68375,345.33322 328.8125,344.625 C 329.94125,343.91678 330.93814,343.10877 331.8125,342.21875 C 332.68686,341.32873 333.45958,340.35552 334.0625,339.28125 C 341.48755,325.68534 345.71875,310.10709 345.71875,293.53125 C 345.71875,278.25203 342.03217,263.84916 335.65625,251.03125 z "
           id="path4070" />
        <path
           style="opacity:1;fill:lime;fill-opacity:1;stroke:none;stroke-width:2;stroke-miterlimit:4;stroke-dasharray:none;stroke-opacity:1"
           d="M 254.375,198.125 C 253.77019,198.19592 253.16451,198.24345 252.5625,198.46875 C 251.70051,198.79135 250.85201,199.24893 250,199.875 C 249.14799,200.50107 248.30581,201.27332 247.46875,202.1875 C 246.63169,203.10168 245.78589,204.15682 244.96875,205.34375 C 243.33448,207.71762 241.74349,210.62728 240.21875,214 C 238.69401,217.37272 237.25044,221.22005 235.875,225.46875 C 234.49956,229.71745 233.18635,234.3732 232,239.375 C 230.81365,244.3768 229.73874,249.74297 228.78125,255.375 C 227.82376,261.00703 227.00135,266.92312 226.3125,273.0625 C 225.62365,279.20188 225.06793,285.53864 224.6875,292.0625 C 224.67379,292.29766 224.66945,292.5152 224.65625,292.75 C 226.35878,292.77589 228.04471,292.9512 229.65625,293.28125 C 231.39833,293.63803 233.05513,294.16616 234.65625,294.84375 C 236.25737,295.52134 237.79455,296.35007 239.21875,297.3125 C 240.64295,298.27493 241.9762,299.3512 243.1875,300.5625 C 244.3988,301.7738 245.47507,303.10705 246.4375,304.53125 C 247.34024,305.86712 248.09688,307.31998 248.75,308.8125 C 249.38217,308.50473 249.99134,308.24811 250.625,307.9375 C 256.32298,305.14447 262.08628,302.22895 267.875,299.1875 C 273.66372,296.14605 279.18484,293.13162 284.40625,290.1875 C 289.62766,287.24338 294.55961,284.3737 299.125,281.59375 C 303.69039,278.8138 307.89809,276.14267 311.71875,273.59375 C 315.53941,271.04483 318.98152,268.62605 321.96875,266.375 C 324.95598,264.12395 327.49742,262.01133 329.5625,260.125 C 331.62758,258.23867 333.19577,256.57977 334.25,255.125 C 334.77711,254.39762 335.17973,253.70071 335.4375,253.09375 C 335.69527,252.48679 335.80392,251.94693 335.78125,251.46875 C 335.75858,250.99057 335.59544,250.59104 335.28125,250.25 C 320.09547,220.40299 289.73494,199.74177 254.375,198.125 z "
           id="path4058" />
        <path
           style="opacity:1;fill:#ef41ff;fill-opacity:1;stroke:none;stroke-width:2;stroke-miterlimit:4;stroke-dasharray:none;stroke-opacity:1"
           d="M 250,197.8125 C 213.74174,197.8125 182.17934,218.00096 165.9375,247.75 C 165.33458,248.82427 164.8939,249.95356 164.59375,251.15625 C 164.2936,252.35894 164.13356,253.65056 164.125,254.96875 C 164.11644,256.28694 164.2594,257.64172 164.53125,259.0625 C 164.8031,260.48328 165.20892,261.95831 165.75,263.46875 C 166.29108,264.97919 166.98212,266.5378 167.78125,268.125 C 168.58038,269.7122 169.48526,271.31772 170.53125,272.96875 C 172.62324,276.27081 175.20639,279.70761 178.21875,283.1875 C 181.23111,286.66739 184.68798,290.19562 188.53125,293.75 C 192.37452,297.30438 196.60277,300.88072 201.1875,304.40625 C 201.39881,304.56874 201.66223,304.71268 201.875,304.875 C 201.94612,304.7664 201.98986,304.63875 202.0625,304.53125 C 203.02493,303.10705 204.13245,301.7738 205.34375,300.5625 C 206.55505,299.3512 207.85705,298.27493 209.28125,297.3125 C 210.70545,296.35007 212.24263,295.52134 213.84375,294.84375 C 215.44487,294.16616 217.13292,293.63803 218.875,293.28125 C 220.61708,292.92447 222.40294,292.71875 224.25,292.71875 C 224.38841,292.71875 224.51834,292.7479 224.65625,292.75 C 224.66945,292.5152 224.67379,292.29766 224.6875,292.0625 C 225.06793,285.53864 225.62365,279.20188 226.3125,273.0625 C 227.00135,266.92312 227.82376,261.00703 228.78125,255.375 C 229.73874,249.74297 230.81365,244.3768 232,239.375 C 233.18635,234.3732 234.49956,229.71745 235.875,225.46875 C 237.25044,221.22005 238.69401,217.37272 240.21875,214 C 241.74349,210.62728 243.33448,207.71762 244.96875,205.34375 C 245.78589,204.15682 246.63169,203.10168 247.46875,202.1875 C 248.30581,201.27332 249.14799,200.50107 250,199.875 C 250.85201,199.24893 251.70051,198.79135 252.5625,198.46875 C 253.27851,198.20078 253.99899,198.11138 254.71875,198.0625 C 253.14456,197.98542 251.5932,197.8125 250,197.8125 z "
           id="path4004" />
        <path
           sodipodi:type="arc"
           style="opacity:1;fill:white;fill-opacity:1;stroke:none;stroke-width:2;stroke-miterlimit:4;stroke-dasharray:none;stroke-opacity:1"
           id="path4138"
           sodipodi:cx="224.25386"
           sodipodi:cy="319.49649"
           sodipodi:rx="26.769043"
           sodipodi:ry="26.769043"
           d="M 251.0229 319.49649 A 26.769043 26.769043 0 1 1  197.48482,319.49649 A 26.769043 26.769043 0 1 1  251.0229 319.49649 z" />
      </g>
      <path
         d="M 345.71429,293.51823 C 345.71429,346.35252 302.83429,389.23252 250,389.23252 C 197.16571,389.23252 154.28571,346.35252 154.28571,293.51823 C 154.28571,240.68394 197.16571,197.80394 250,197.80394 C 302.83429,197.80394 345.71429,240.68394 345.71429,293.51823 z M 244.4289,389.05684 C 230.45991,388.25934 221.61864,344.81077 224.69391,292.07342 C 227.73733,239.88254 241.28665,198.02896 255.15859,197.96863 M 334.04749,339.2834 C 324.40073,356.47166 278.91822,349.91864 232.52403,324.65613 C 186.12984,299.3936 156.30584,264.9408 165.95261,247.75253 C 166.11529,247.46266 166.26164,247.2223 166.44499,246.94382 M 335.75788,251.27694 C 336.79301,258.90039 299.21359,284.01176 251.87526,307.32912 C 205.60464,330.12055 167.01254,342.86233 164.36242,336.22281"
         style="fill:none;fill-opacity:1;stroke:black;stroke-width:2.1492064;stroke-miterlimit:4;stroke-dasharray:none;stroke-dashoffset:0;stroke-opacity:1"
         id="path2192" />

      <path
         sodipodi:type="arc"
         style="fill:white;fill-opacity:1;stroke:black;stroke-width:2.1492064;stroke-miterlimit:4;stroke-dasharray:none;stroke-opacity:1;display:inline"
         id="path4195"
         sodipodi:cx="224.25386"
         sodipodi:cy="319.49649"
         sodipodi:rx="26.769043"
         sodipodi:ry="26.769043"
         d="M 251.0229 319.49649 A 26.769043 26.769043 0 1 1  197.48482,319.49649 A 26.769043 26.769043 0 1 1  251.0229 319.49649 z" />
    </g>
  </g>
  <g
     inkscape:groupmode="layer"
     id="layer2"
     inkscape:label="top"
     style="display:inline"
     transform="translate(-153.2163,-210.1631)" />
</svg>


<animateTransform attributeName="transform" type="scale" values="1,1;1,0.7;1,1;1,0.8;1,1;1,0.9;1,1;1,1;1,1;1,1" begin="0s" dur="1.5s" repeatCount="indefinite"/>
</g>
<animateTransform attributeName="transform" type="translate" values="0,100;0,100;0,80;0,65;0,55;0,50;0,55;0,65;0,80;0,100" begin="0s" dur="1.5s" repeatCount="indefinite"/>
</g>

<g mask="url(#m)">
<use xlink:href="#me" transform="translate(0 200) scale(1 -1)"/>
</g>

</svg>
